<svg xmlns="http://www.w3.org/2000/svg" xmlns:xlink="http://www.w3.org/1999/xlink" width="500" zoomAndPan="magnify" viewBox="0 0 375 74.999997" height="100" preserveAspectRatio="xMidYMid meet" version="1.0"><defs><g/></defs><path fill="#ffffff" d="M 37.019531 31.875 L 41.492188 31.875 L 41.492188 45.9375 C 41.492188 47.484375 42.757812 48.75 44.304688 48.75 L 55.554688 48.75 C 57.101562 48.75 58.367188 47.484375 58.367188 45.9375 L 58.367188 31.875 L 62.839844 31.875 C 65.339844 31.875 66.605469 28.835938 64.835938 27.066406 L 51.925781 14.15625 C 50.828125 13.058594 49.058594 13.058594 47.960938 14.15625 L 35.050781 27.066406 C 33.277344 28.835938 34.515625 31.875 37.019531 31.875 Z M 30.269531 57.1875 C 30.269531 58.734375 31.535156 60 33.082031 60 L 66.832031 60 C 68.378906 60 69.644531 58.734375 69.644531 57.1875 C 69.644531 55.640625 68.378906 54.375 66.832031 54.375 L 33.082031 54.375 C 31.535156 54.375 30.269531 55.640625 30.269531 57.1875 Z M 30.269531 57.1875 " fill-opacity="1" fill-rule="nonzero"/><g fill="#ffffff" fill-opacity="1"><g transform="translate(86.237951, 46.124995)"><g><path d="M 7.78125 -10.796875 C 7.78125 -9.359375 7.835938 -8.328125 7.953125 -7.703125 C 8.148438 -6.617188 8.648438 -5.734375 9.453125 -5.046875 C 10.253906 -4.367188 11.4375 -4.03125 13 -4.03125 C 14.4375 -4.03125 15.515625 -4.289062 16.234375 -4.8125 C 16.953125 -5.34375 17.421875 -6.070312 17.640625 -7 C 17.859375 -7.925781 17.96875 -9.179688 17.96875 -10.765625 L 17.96875 -25.78125 L 23.140625 -25.78125 L 23.140625 -11.65625 C 23.140625 -9.5 23.046875 -7.75 22.859375 -6.40625 C 22.160156 -1.84375 18.921875 0.4375 13.140625 0.4375 C 10.046875 0.4375 7.726562 -0.0820312 6.1875 -1.125 C 4.65625 -2.175781 3.671875 -3.503906 3.234375 -5.109375 C 2.804688 -6.722656 2.59375 -8.753906 2.59375 -11.203125 L 2.59375 -25.78125 L 7.78125 -25.78125 Z M 7.78125 -10.796875 "/></g></g></g><g fill="#ffffff" fill-opacity="1"><g transform="translate(112.229999, 46.124995)"><g><path d="M 12.859375 -19.078125 C 14.222656 -19.078125 15.5 -18.703125 16.6875 -17.953125 C 17.875 -17.210938 18.832031 -16.097656 19.5625 -14.609375 C 20.289062 -13.128906 20.65625 -11.304688 20.65625 -9.140625 C 20.65625 -7.054688 20.300781 -5.289062 19.59375 -3.84375 C 18.894531 -2.40625 17.945312 -1.332031 16.75 -0.625 C 15.5625 0.0820312 14.25 0.4375 12.8125 0.4375 C 10.695312 0.4375 8.882812 -0.425781 7.375 -2.15625 L 7.375 7.09375 L 2.453125 7.09375 L 2.453125 -18.640625 L 7.0625 -18.640625 L 7.0625 -15.90625 L 7.125 -15.90625 C 7.695312 -16.769531 8.492188 -17.515625 9.515625 -18.140625 C 10.535156 -18.765625 11.648438 -19.078125 12.859375 -19.078125 Z M 7.734375 -12.09375 C 7.472656 -11.320312 7.34375 -10.265625 7.34375 -8.921875 C 7.34375 -7.078125 7.734375 -5.6875 8.515625 -4.75 C 9.296875 -3.8125 10.285156 -3.34375 11.484375 -3.34375 C 12.953125 -3.34375 14.003906 -3.914062 14.640625 -5.0625 C 15.273438 -6.21875 15.59375 -7.648438 15.59375 -9.359375 C 15.59375 -11.347656 15.210938 -12.8125 14.453125 -13.75 C 13.691406 -14.6875 12.75 -15.15625 11.625 -15.15625 C 10.789062 -15.15625 10.019531 -14.890625 9.3125 -14.359375 C 8.601562 -13.835938 8.078125 -13.082031 7.734375 -12.09375 Z M 7.734375 -12.09375 "/></g></g></g><g fill="#ffffff" fill-opacity="1"><g transform="translate(134.226046, 46.124995)"><g><path d="M 7.53125 0 L 2.59375 0 L 2.59375 -25.78125 L 7.53125 -25.78125 Z M 7.53125 0 "/></g></g></g><g fill="#ffffff" fill-opacity="1"><g transform="translate(144.234063, 46.124995)"><g><path d="M 11.046875 -19.078125 C 13.066406 -19.078125 14.804688 -18.617188 16.265625 -17.703125 C 17.734375 -16.796875 18.835938 -15.597656 19.578125 -14.109375 C 20.328125 -12.617188 20.703125 -11.046875 20.703125 -9.390625 C 20.703125 -7.660156 20.3125 -6.046875 19.53125 -4.546875 C 18.75 -3.046875 17.628906 -1.835938 16.171875 -0.921875 C 14.722656 -0.015625 13.03125 0.4375 11.09375 0.4375 C 9.4375 0.4375 7.875 0.09375 6.40625 -0.59375 C 4.945312 -1.28125 3.753906 -2.375 2.828125 -3.875 C 1.898438 -5.375 1.4375 -7.273438 1.4375 -9.578125 C 1.4375 -11.179688 1.800781 -12.707031 2.53125 -14.15625 C 3.269531 -15.613281 4.363281 -16.796875 5.8125 -17.703125 C 7.257812 -18.617188 9.003906 -19.078125 11.046875 -19.078125 Z M 6.515625 -9.328125 C 6.515625 -7.453125 6.953125 -6.023438 7.828125 -5.046875 C 8.703125 -4.078125 9.773438 -3.59375 11.046875 -3.59375 C 12.316406 -3.59375 13.394531 -4.070312 14.28125 -5.03125 C 15.175781 -6 15.625 -7.441406 15.625 -9.359375 C 15.625 -11.140625 15.195312 -12.53125 14.34375 -13.53125 C 13.488281 -14.539062 12.378906 -15.046875 11.015625 -15.046875 C 9.765625 -15.046875 8.703125 -14.550781 7.828125 -13.5625 C 6.953125 -12.582031 6.515625 -11.171875 6.515625 -9.328125 Z M 6.515625 -9.328125 "/></g></g></g><g fill="#ffffff" fill-opacity="1"><g transform="translate(166.230109, 46.124995)"><g><path d="M 9.859375 -19.078125 C 12.234375 -19.078125 14 -18.769531 15.15625 -18.15625 C 16.3125 -17.550781 17.035156 -16.75 17.328125 -15.75 C 17.628906 -14.75 17.769531 -13.4375 17.75 -11.8125 L 17.71875 -6.375 C 17.6875 -4.664062 17.742188 -3.425781 17.890625 -2.65625 C 18.035156 -1.894531 18.335938 -1.007812 18.796875 0 L 13.9375 0 C 13.8125 -0.257812 13.59375 -0.941406 13.28125 -2.046875 C 12.394531 -1.179688 11.476562 -0.550781 10.53125 -0.15625 C 9.582031 0.238281 8.566406 0.4375 7.484375 0.4375 C 5.640625 0.4375 4.144531 -0.0703125 3 -1.09375 C 1.863281 -2.113281 1.296875 -3.441406 1.296875 -5.078125 C 1.296875 -6.441406 1.632812 -7.523438 2.3125 -8.328125 C 3 -9.140625 3.832031 -9.722656 4.8125 -10.078125 C 5.800781 -10.441406 6.96875 -10.753906 8.3125 -11.015625 C 10.375 -11.398438 11.898438 -11.785156 12.890625 -12.171875 L 12.890625 -12.953125 C 12.890625 -13.773438 12.648438 -14.367188 12.171875 -14.734375 C 11.691406 -15.109375 10.816406 -15.296875 9.546875 -15.296875 C 8.554688 -15.296875 7.820312 -15.097656 7.34375 -14.703125 C 6.863281 -14.304688 6.503906 -13.722656 6.265625 -12.953125 L 1.796875 -13.78125 C 2.273438 -15.613281 3.140625 -16.953125 4.390625 -17.796875 C 5.640625 -18.648438 7.460938 -19.078125 9.859375 -19.078125 Z M 9.796875 -8.171875 L 8.96875 -7.984375 C 7.144531 -7.609375 6.234375 -6.816406 6.234375 -5.609375 C 6.234375 -4.890625 6.488281 -4.285156 7 -3.796875 C 7.519531 -3.304688 8.175781 -3.0625 8.96875 -3.0625 C 9.613281 -3.0625 10.257812 -3.226562 10.90625 -3.5625 C 11.550781 -3.894531 12.054688 -4.335938 12.421875 -4.890625 C 12.734375 -5.398438 12.890625 -6.265625 12.890625 -7.484375 L 12.890625 -8.96875 C 11.953125 -8.675781 10.921875 -8.410156 9.796875 -8.171875 Z M 9.796875 -8.171875 "/></g></g></g><g fill="#ffffff" fill-opacity="1"><g transform="translate(186.246145, 46.124995)"><g><path d="M 19.6875 -25.78125 L 19.6875 0 L 15.078125 0 L 15.078125 -2.734375 L 15.015625 -2.734375 C 14.222656 -1.535156 13.289062 -0.707031 12.21875 -0.25 C 11.15625 0.207031 10.175781 0.4375 9.28125 0.4375 C 7.914062 0.4375 6.640625 0.0664062 5.453125 -0.671875 C 4.265625 -1.421875 3.300781 -2.539062 2.5625 -4.03125 C 1.832031 -5.519531 1.46875 -7.34375 1.46875 -9.5 C 1.46875 -11.59375 1.820312 -13.359375 2.53125 -14.796875 C 3.238281 -16.234375 4.1875 -17.304688 5.375 -18.015625 C 6.5625 -18.722656 7.878906 -19.078125 9.328125 -19.078125 C 11.429688 -19.078125 13.242188 -18.210938 14.765625 -16.484375 L 14.765625 -25.78125 Z M 6.546875 -9.28125 C 6.546875 -7.21875 6.9375 -5.734375 7.71875 -4.828125 C 8.5 -3.929688 9.414062 -3.484375 10.46875 -3.484375 C 11.125 -3.484375 11.78125 -3.648438 12.4375 -3.984375 C 13.09375 -4.328125 13.660156 -4.96875 14.140625 -5.90625 C 14.578125 -6.738281 14.796875 -8.007812 14.796875 -9.71875 C 14.796875 -11.519531 14.410156 -12.898438 13.640625 -13.859375 C 12.867188 -14.816406 11.863281 -15.296875 10.625 -15.296875 L 10.4375 -15.296875 C 9.050781 -15.222656 8.054688 -14.613281 7.453125 -13.46875 C 6.847656 -12.332031 6.546875 -10.9375 6.546875 -9.28125 Z M 6.546875 -9.28125 "/></g></g></g><g fill="#ffffff" fill-opacity="1"><g transform="translate(208.241848, 46.124995)"><g/></g></g><g fill="#ffffff" fill-opacity="1"><g transform="translate(218.249663, 46.124995)"><g><path d="M 9.359375 -8.0625 L 14.046875 -25.78125 L 20.234375 -25.78125 L 24.796875 -7.78125 L 28.6875 -25.78125 L 33.953125 -25.78125 L 27.6875 0 L 22.140625 0 L 16.984375 -19.265625 L 11.921875 0 L 6.265625 0 L 0.109375 -25.78125 L 5.4375 -25.78125 Z M 9.359375 -8.0625 "/></g></g></g><g fill="#ffffff" fill-opacity="1"><g transform="translate(252.233726, 46.124995)"><g><path d="M 7.625 0 L 2.453125 0 L 2.453125 -25.78125 L 7.625 -25.78125 Z M 7.625 0 "/></g></g></g><g fill="#ffffff" fill-opacity="1"><g transform="translate(262.241744, 46.124995)"><g><path d="M 20.34375 -21.421875 L 7.84375 -21.421875 L 7.84375 -15.296875 L 18.640625 -15.296875 L 18.640625 -10.9375 L 7.84375 -10.9375 L 7.84375 0 L 2.65625 0 L 2.65625 -25.78125 L 20.34375 -25.78125 Z M 20.34375 -21.421875 "/></g></g></g><g fill="#ffffff" fill-opacity="1"><g transform="translate(284.22622, 46.124995)"><g/></g></g><g fill="#ffffff" fill-opacity="1"><g transform="translate(294.234032, 46.124995)"><g><path d="M 20.34375 -21.421875 L 7.84375 -21.421875 L 7.84375 -15.296875 L 18.640625 -15.296875 L 18.640625 -10.9375 L 7.84375 -10.9375 L 7.84375 0 L 2.65625 0 L 2.65625 -25.78125 L 20.34375 -25.78125 Z M 20.34375 -21.421875 "/></g></g></g><g fill="#ffffff" fill-opacity="1"><g transform="translate(316.230078, 46.124995)"><g><path d="M 7.53125 -21.203125 L 2.59375 -21.203125 L 2.59375 -25.78125 L 7.53125 -25.78125 Z M 7.53125 0 L 2.59375 0 L 2.59375 -18.640625 L 7.53125 -18.640625 Z M 7.53125 0 "/></g></g></g><g fill="#ffffff" fill-opacity="1"><g transform="translate(326.238096, 46.124995)"><g><path d="M 7.53125 0 L 2.59375 0 L 2.59375 -25.78125 L 7.53125 -25.78125 Z M 7.53125 0 "/></g></g></g><g fill="#ffffff" fill-opacity="1"><g transform="translate(336.246113, 46.124995)"><g><path d="M 9.71875 -19.078125 C 12.695312 -19.078125 14.914062 -18.109375 16.375 -16.171875 C 17.84375 -14.242188 18.578125 -11.492188 18.578125 -7.921875 L 6.1875 -7.921875 C 6.238281 -6.671875 6.601562 -5.59375 7.28125 -4.6875 C 7.96875 -3.789062 8.960938 -3.34375 10.265625 -3.34375 C 11.078125 -3.34375 11.738281 -3.550781 12.25 -3.96875 C 12.769531 -4.394531 13.148438 -5.050781 13.390625 -5.9375 L 18.328125 -5.109375 C 17.703125 -3.285156 16.691406 -1.90625 15.296875 -0.96875 C 13.910156 -0.03125 12.207031 0.4375 10.1875 0.4375 C 7.1875 0.4375 4.921875 -0.460938 3.390625 -2.265625 C 2.660156 -3.109375 2.101562 -4.164062 1.71875 -5.4375 C 1.34375 -6.707031 1.15625 -7.96875 1.15625 -9.21875 C 1.15625 -10.914062 1.457031 -12.515625 2.0625 -14.015625 C 2.675781 -15.515625 3.625 -16.734375 4.90625 -17.671875 C 6.195312 -18.609375 7.800781 -19.078125 9.71875 -19.078125 Z M 6.296875 -10.9375 L 13.6875 -10.9375 C 13.65625 -12.457031 13.273438 -13.5625 12.546875 -14.25 C 11.816406 -14.945312 10.957031 -15.296875 9.96875 -15.296875 C 8.820312 -15.296875 7.921875 -14.878906 7.265625 -14.046875 C 6.617188 -13.222656 6.296875 -12.1875 6.296875 -10.9375 Z M 6.296875 -10.9375 "/></g></g></g></svg>