<svg xmlns="http://www.w3.org/2000/svg" xmlns:xlink="http://www.w3.org/1999/xlink" width="500" zoomAndPan="magnify" viewBox="0 0 375 74.999997" height="100" preserveAspectRatio="xMidYMid meet" version="1.0"><defs><g/></defs><path fill="#ffffff" d="M 52.574219 29.0625 L 48.105469 29.0625 L 48.105469 15 C 48.105469 13.453125 46.839844 12.1875 45.292969 12.1875 L 34.042969 12.1875 C 32.496094 12.1875 31.230469 13.453125 31.230469 15 L 31.230469 29.0625 L 26.757812 29.0625 C 24.253906 29.0625 22.988281 32.101562 24.761719 33.871094 L 37.667969 46.78125 C 38.765625 47.878906 40.539062 47.878906 41.636719 46.78125 L 54.542969 33.871094 C 56.316406 32.101562 55.078125 29.0625 52.574219 29.0625 Z M 19.980469 57.1875 C 19.980469 58.734375 21.246094 60 22.792969 60 L 56.542969 60 C 58.089844 60 59.355469 58.734375 59.355469 57.1875 C 59.355469 55.640625 58.089844 54.375 56.542969 54.375 L 22.792969 54.375 C 21.246094 54.375 19.980469 55.640625 19.980469 57.1875 Z M 19.980469 57.1875 " fill-opacity="1" fill-rule="nonzero"/><g fill="#ffffff" fill-opacity="1"><g transform="translate(76.346178, 46.124995)"><g><path d="M 20.40625 -23.359375 C 22.925781 -21.109375 24.1875 -17.507812 24.1875 -12.5625 C 24.1875 -8.414062 23.070312 -5.164062 20.84375 -2.8125 C 19.09375 -0.9375 16.394531 0 12.75 0 L 2.59375 0 L 2.59375 -25.78125 L 12.640625 -25.78125 C 14.460938 -25.78125 15.972656 -25.59375 17.171875 -25.21875 C 18.367188 -24.84375 19.445312 -24.222656 20.40625 -23.359375 Z M 18.828125 -12.859375 C 18.828125 -15.328125 18.53125 -17.175781 17.9375 -18.40625 C 17.351562 -19.644531 16.507812 -20.457031 15.40625 -20.84375 C 14.300781 -21.226562 12.789062 -21.421875 10.875 -21.421875 L 7.78125 -21.421875 L 7.78125 -4.359375 L 12.09375 -4.359375 C 13.707031 -4.359375 14.988281 -4.566406 15.9375 -4.984375 C 16.882812 -5.398438 17.601562 -6.21875 18.09375 -7.4375 C 18.582031 -8.664062 18.828125 -10.472656 18.828125 -12.859375 Z M 18.828125 -12.859375 "/></g></g></g><g fill="#ffffff" fill-opacity="1"><g transform="translate(102.338226, 46.124995)"><g><path d="M 11.046875 -19.078125 C 13.066406 -19.078125 14.804688 -18.617188 16.265625 -17.703125 C 17.734375 -16.796875 18.835938 -15.597656 19.578125 -14.109375 C 20.328125 -12.617188 20.703125 -11.046875 20.703125 -9.390625 C 20.703125 -7.660156 20.3125 -6.046875 19.53125 -4.546875 C 18.75 -3.046875 17.628906 -1.835938 16.171875 -0.921875 C 14.722656 -0.015625 13.03125 0.4375 11.09375 0.4375 C 9.4375 0.4375 7.875 0.09375 6.40625 -0.59375 C 4.945312 -1.28125 3.753906 -2.375 2.828125 -3.875 C 1.898438 -5.375 1.4375 -7.273438 1.4375 -9.578125 C 1.4375 -11.179688 1.800781 -12.707031 2.53125 -14.15625 C 3.269531 -15.613281 4.363281 -16.796875 5.8125 -17.703125 C 7.257812 -18.617188 9.003906 -19.078125 11.046875 -19.078125 Z M 6.515625 -9.328125 C 6.515625 -7.453125 6.953125 -6.023438 7.828125 -5.046875 C 8.703125 -4.078125 9.773438 -3.59375 11.046875 -3.59375 C 12.316406 -3.59375 13.394531 -4.070312 14.28125 -5.03125 C 15.175781 -6 15.625 -7.441406 15.625 -9.359375 C 15.625 -11.140625 15.195312 -12.53125 14.34375 -13.53125 C 13.488281 -14.539062 12.378906 -15.046875 11.015625 -15.046875 C 9.765625 -15.046875 8.703125 -14.550781 7.828125 -13.5625 C 6.953125 -12.582031 6.515625 -11.171875 6.515625 -9.328125 Z M 6.515625 -9.328125 "/></g></g></g><g fill="#ffffff" fill-opacity="1"><g transform="translate(124.334273, 46.124995)"><g><path d="M 8.421875 -6.4375 L 8.5 -6.4375 L 11.65625 -18.640625 L 16.453125 -18.640625 L 19.515625 -6.4375 L 19.578125 -6.4375 L 23.109375 -18.640625 L 27.96875 -18.640625 L 22 0 L 17.25 0 L 14.078125 -12.03125 L 14 -12.03125 L 10.875 0 L 6.078125 0 L 0.140625 -18.640625 L 4.96875 -18.640625 Z M 8.421875 -6.4375 "/></g></g></g><g fill="#ffffff" fill-opacity="1"><g transform="translate(152.342323, 46.124995)"><g><path d="M 13.3125 -19.078125 C 14.414062 -19.078125 15.375 -18.890625 16.1875 -18.515625 C 17.007812 -18.148438 17.660156 -17.710938 18.140625 -17.203125 C 18.722656 -16.578125 19.101562 -15.835938 19.28125 -14.984375 C 19.457031 -14.140625 19.546875 -13.203125 19.546875 -12.171875 L 19.546875 0 L 14.609375 0 L 14.609375 -10.1875 C 14.609375 -11.914062 14.414062 -13.195312 14.03125 -14.03125 C 13.65625 -14.875 12.84375 -15.296875 11.59375 -15.296875 C 10.414062 -15.296875 9.503906 -14.957031 8.859375 -14.28125 C 8.210938 -13.613281 7.828125 -12.835938 7.703125 -11.953125 C 7.628906 -11.378906 7.570312 -10.863281 7.53125 -10.40625 C 7.5 -9.945312 7.484375 -9.429688 7.484375 -8.859375 L 7.484375 0 L 2.5625 0 L 2.5625 -18.640625 L 7.234375 -18.640625 L 7.234375 -15.90625 C 7.765625 -16.695312 8.550781 -17.421875 9.59375 -18.078125 C 10.632812 -18.742188 11.875 -19.078125 13.3125 -19.078125 Z M 13.3125 -19.078125 "/></g></g></g><g fill="#ffffff" fill-opacity="1"><g transform="translate(174.338369, 46.124995)"><g><path d="M 7.53125 0 L 2.59375 0 L 2.59375 -25.78125 L 7.53125 -25.78125 Z M 7.53125 0 "/></g></g></g><g fill="#ffffff" fill-opacity="1"><g transform="translate(184.346387, 46.124995)"><g><path d="M 11.046875 -19.078125 C 13.066406 -19.078125 14.804688 -18.617188 16.265625 -17.703125 C 17.734375 -16.796875 18.835938 -15.597656 19.578125 -14.109375 C 20.328125 -12.617188 20.703125 -11.046875 20.703125 -9.390625 C 20.703125 -7.660156 20.3125 -6.046875 19.53125 -4.546875 C 18.75 -3.046875 17.628906 -1.835938 16.171875 -0.921875 C 14.722656 -0.015625 13.03125 0.4375 11.09375 0.4375 C 9.4375 0.4375 7.875 0.09375 6.40625 -0.59375 C 4.945312 -1.28125 3.753906 -2.375 2.828125 -3.875 C 1.898438 -5.375 1.4375 -7.273438 1.4375 -9.578125 C 1.4375 -11.179688 1.800781 -12.707031 2.53125 -14.15625 C 3.269531 -15.613281 4.363281 -16.796875 5.8125 -17.703125 C 7.257812 -18.617188 9.003906 -19.078125 11.046875 -19.078125 Z M 6.515625 -9.328125 C 6.515625 -7.453125 6.953125 -6.023438 7.828125 -5.046875 C 8.703125 -4.078125 9.773438 -3.59375 11.046875 -3.59375 C 12.316406 -3.59375 13.394531 -4.070312 14.28125 -5.03125 C 15.175781 -6 15.625 -7.441406 15.625 -9.359375 C 15.625 -11.140625 15.195312 -12.53125 14.34375 -13.53125 C 13.488281 -14.539062 12.378906 -15.046875 11.015625 -15.046875 C 9.765625 -15.046875 8.703125 -14.550781 7.828125 -13.5625 C 6.953125 -12.582031 6.515625 -11.171875 6.515625 -9.328125 Z M 6.515625 -9.328125 "/></g></g></g><g fill="#ffffff" fill-opacity="1"><g transform="translate(206.342433, 46.124995)"><g><path d="M 9.859375 -19.078125 C 12.234375 -19.078125 14 -18.769531 15.15625 -18.15625 C 16.3125 -17.550781 17.035156 -16.75 17.328125 -15.75 C 17.628906 -14.75 17.769531 -13.4375 17.75 -11.8125 L 17.71875 -6.375 C 17.6875 -4.664062 17.742188 -3.425781 17.890625 -2.65625 C 18.035156 -1.894531 18.335938 -1.007812 18.796875 0 L 13.9375 0 C 13.8125 -0.257812 13.59375 -0.941406 13.28125 -2.046875 C 12.394531 -1.179688 11.476562 -0.550781 10.53125 -0.15625 C 9.582031 0.238281 8.566406 0.4375 7.484375 0.4375 C 5.640625 0.4375 4.144531 -0.0703125 3 -1.09375 C 1.863281 -2.113281 1.296875 -3.441406 1.296875 -5.078125 C 1.296875 -6.441406 1.632812 -7.523438 2.3125 -8.328125 C 3 -9.140625 3.832031 -9.722656 4.8125 -10.078125 C 5.800781 -10.441406 6.96875 -10.753906 8.3125 -11.015625 C 10.375 -11.398438 11.898438 -11.785156 12.890625 -12.171875 L 12.890625 -12.953125 C 12.890625 -13.773438 12.648438 -14.367188 12.171875 -14.734375 C 11.691406 -15.109375 10.816406 -15.296875 9.546875 -15.296875 C 8.554688 -15.296875 7.820312 -15.097656 7.34375 -14.703125 C 6.863281 -14.304688 6.503906 -13.722656 6.265625 -12.953125 L 1.796875 -13.78125 C 2.273438 -15.613281 3.140625 -16.953125 4.390625 -17.796875 C 5.640625 -18.648438 7.460938 -19.078125 9.859375 -19.078125 Z M 9.796875 -8.171875 L 8.96875 -7.984375 C 7.144531 -7.609375 6.234375 -6.816406 6.234375 -5.609375 C 6.234375 -4.890625 6.488281 -4.285156 7 -3.796875 C 7.519531 -3.304688 8.175781 -3.0625 8.96875 -3.0625 C 9.613281 -3.0625 10.257812 -3.226562 10.90625 -3.5625 C 11.550781 -3.894531 12.054688 -4.335938 12.421875 -4.890625 C 12.734375 -5.398438 12.890625 -6.265625 12.890625 -7.484375 L 12.890625 -8.96875 C 11.953125 -8.675781 10.921875 -8.410156 9.796875 -8.171875 Z M 9.796875 -8.171875 "/></g></g></g><g fill="#ffffff" fill-opacity="1"><g transform="translate(226.358468, 46.124995)"><g><path d="M 19.6875 -25.78125 L 19.6875 0 L 15.078125 0 L 15.078125 -2.734375 L 15.015625 -2.734375 C 14.222656 -1.535156 13.289062 -0.707031 12.21875 -0.25 C 11.15625 0.207031 10.175781 0.4375 9.28125 0.4375 C 7.914062 0.4375 6.640625 0.0664062 5.453125 -0.671875 C 4.265625 -1.421875 3.300781 -2.539062 2.5625 -4.03125 C 1.832031 -5.519531 1.46875 -7.34375 1.46875 -9.5 C 1.46875 -11.59375 1.820312 -13.359375 2.53125 -14.796875 C 3.238281 -16.234375 4.1875 -17.304688 5.375 -18.015625 C 6.5625 -18.722656 7.878906 -19.078125 9.328125 -19.078125 C 11.429688 -19.078125 13.242188 -18.210938 14.765625 -16.484375 L 14.765625 -25.78125 Z M 6.546875 -9.28125 C 6.546875 -7.21875 6.9375 -5.734375 7.71875 -4.828125 C 8.5 -3.929688 9.414062 -3.484375 10.46875 -3.484375 C 11.125 -3.484375 11.78125 -3.648438 12.4375 -3.984375 C 13.09375 -4.328125 13.660156 -4.96875 14.140625 -5.90625 C 14.578125 -6.738281 14.796875 -8.007812 14.796875 -9.71875 C 14.796875 -11.519531 14.410156 -12.898438 13.640625 -13.859375 C 12.867188 -14.816406 11.863281 -15.296875 10.625 -15.296875 L 10.4375 -15.296875 C 9.050781 -15.222656 8.054688 -14.613281 7.453125 -13.46875 C 6.847656 -12.332031 6.546875 -10.9375 6.546875 -9.28125 Z M 6.546875 -9.28125 "/></g></g></g><g fill="#ffffff" fill-opacity="1"><g transform="translate(248.354514, 46.124995)"><g/></g></g><g fill="#ffffff" fill-opacity="1"><g transform="translate(258.362532, 46.124995)"><g><path d="M 7.625 0 L 2.453125 0 L 2.453125 -25.78125 L 7.625 -25.78125 Z M 7.625 0 "/></g></g></g><g fill="#ffffff" fill-opacity="1"><g transform="translate(268.370561, 46.124995)"><g><path d="M 12.59375 -19.078125 C 15.019531 -19.078125 16.785156 -18.09375 17.890625 -16.125 C 19.492188 -18.09375 21.390625 -19.078125 23.578125 -19.078125 C 25.640625 -19.078125 27.175781 -18.515625 28.1875 -17.390625 C 29.195312 -16.265625 29.703125 -14.570312 29.703125 -12.3125 L 29.703125 0 L 24.765625 0 L 24.765625 -11.15625 C 24.765625 -12.5 24.585938 -13.523438 24.234375 -14.234375 C 23.890625 -14.941406 23.191406 -15.296875 22.140625 -15.296875 C 21.128906 -15.296875 20.316406 -14.945312 19.703125 -14.25 C 19.097656 -13.5625 18.722656 -12.664062 18.578125 -11.5625 C 18.484375 -10.695312 18.4375 -9.925781 18.4375 -9.25 L 18.4375 0 L 13.5 0 L 13.5 -10.984375 C 13.5 -12.492188 13.335938 -13.585938 13.015625 -14.265625 C 12.691406 -14.953125 12 -15.296875 10.9375 -15.296875 C 10.175781 -15.296875 9.488281 -15.09375 8.875 -14.6875 C 8.257812 -14.28125 7.832031 -13.71875 7.59375 -13 C 7.300781 -12.132812 7.15625 -10.921875 7.15625 -9.359375 L 7.15625 0 L 2.234375 0 L 2.234375 -18.640625 L 6.796875 -18.640625 L 6.875 -16.125 C 7.644531 -17.0625 8.453125 -17.785156 9.296875 -18.296875 C 10.148438 -18.816406 11.25 -19.078125 12.59375 -19.078125 Z M 12.59375 -19.078125 "/></g></g></g><g fill="#ffffff" fill-opacity="1"><g transform="translate(300.374625, 46.124995)"><g><path d="M 9.859375 -19.078125 C 12.234375 -19.078125 14 -18.769531 15.15625 -18.15625 C 16.3125 -17.550781 17.035156 -16.75 17.328125 -15.75 C 17.628906 -14.75 17.769531 -13.4375 17.75 -11.8125 L 17.71875 -6.375 C 17.6875 -4.664062 17.742188 -3.425781 17.890625 -2.65625 C 18.035156 -1.894531 18.335938 -1.007812 18.796875 0 L 13.9375 0 C 13.8125 -0.257812 13.59375 -0.941406 13.28125 -2.046875 C 12.394531 -1.179688 11.476562 -0.550781 10.53125 -0.15625 C 9.582031 0.238281 8.566406 0.4375 7.484375 0.4375 C 5.640625 0.4375 4.144531 -0.0703125 3 -1.09375 C 1.863281 -2.113281 1.296875 -3.441406 1.296875 -5.078125 C 1.296875 -6.441406 1.632812 -7.523438 2.3125 -8.328125 C 3 -9.140625 3.832031 -9.722656 4.8125 -10.078125 C 5.800781 -10.441406 6.96875 -10.753906 8.3125 -11.015625 C 10.375 -11.398438 11.898438 -11.785156 12.890625 -12.171875 L 12.890625 -12.953125 C 12.890625 -13.773438 12.648438 -14.367188 12.171875 -14.734375 C 11.691406 -15.109375 10.816406 -15.296875 9.546875 -15.296875 C 8.554688 -15.296875 7.820312 -15.097656 7.34375 -14.703125 C 6.863281 -14.304688 6.503906 -13.722656 6.265625 -12.953125 L 1.796875 -13.78125 C 2.273438 -15.613281 3.140625 -16.953125 4.390625 -17.796875 C 5.640625 -18.648438 7.460938 -19.078125 9.859375 -19.078125 Z M 9.796875 -8.171875 L 8.96875 -7.984375 C 7.144531 -7.609375 6.234375 -6.816406 6.234375 -5.609375 C 6.234375 -4.890625 6.488281 -4.285156 7 -3.796875 C 7.519531 -3.304688 8.175781 -3.0625 8.96875 -3.0625 C 9.613281 -3.0625 10.257812 -3.226562 10.90625 -3.5625 C 11.550781 -3.894531 12.054688 -4.335938 12.421875 -4.890625 C 12.734375 -5.398438 12.890625 -6.265625 12.890625 -7.484375 L 12.890625 -8.96875 C 11.953125 -8.675781 10.921875 -8.410156 9.796875 -8.171875 Z M 9.796875 -8.171875 "/></g></g></g><g fill="#ffffff" fill-opacity="1"><g transform="translate(320.39066, 46.124995)"><g><path d="M 9.359375 -19.078125 C 10.628906 -19.078125 11.738281 -18.800781 12.6875 -18.25 C 13.632812 -17.695312 14.410156 -16.96875 15.015625 -16.0625 L 15.078125 -16.0625 L 15.078125 -18.640625 L 19.6875 -18.640625 L 19.6875 -1.578125 C 19.6875 0.503906 19.445312 2.195312 18.96875 3.5 C 18.488281 4.8125 17.609375 5.816406 16.328125 6.515625 C 15.046875 7.210938 13.21875 7.5625 10.84375 7.5625 C 7.8125 7.5625 5.601562 7.023438 4.21875 5.953125 C 2.84375 4.890625 2.144531 3.3125 2.125 1.21875 L 7.78125 1.90625 C 7.875 2.65625 8.15625 3.15625 8.625 3.40625 C 9.09375 3.65625 9.769531 3.78125 10.65625 3.78125 C 12.1875 3.78125 13.253906 3.507812 13.859375 2.96875 C 14.460938 2.425781 14.765625 1.484375 14.765625 0.140625 L 14.765625 -3.03125 L 14.6875 -3.03125 C 14.0625 -2.113281 13.265625 -1.378906 12.296875 -0.828125 C 11.328125 -0.273438 10.289062 0 9.1875 0 C 7.644531 0 6.289062 -0.40625 5.125 -1.21875 C 3.96875 -2.039062 3.066406 -3.171875 2.421875 -4.609375 C 1.785156 -6.046875 1.46875 -7.65625 1.46875 -9.4375 C 1.46875 -11.757812 1.867188 -13.640625 2.671875 -15.078125 C 3.484375 -16.523438 4.488281 -17.550781 5.6875 -18.15625 C 6.882812 -18.769531 8.109375 -19.078125 9.359375 -19.078125 Z M 6.546875 -9.71875 C 6.546875 -8.15625 6.859375 -6.816406 7.484375 -5.703125 C 8.109375 -4.585938 9.128906 -4.03125 10.546875 -4.03125 C 11.628906 -4.03125 12.617188 -4.445312 13.515625 -5.28125 C 14.421875 -6.125 14.875 -7.566406 14.875 -9.609375 C 14.875 -11.117188 14.539062 -12.441406 13.875 -13.578125 C 13.21875 -14.722656 12.117188 -15.296875 10.578125 -15.296875 C 9.097656 -15.296875 8.054688 -14.71875 7.453125 -13.5625 C 6.847656 -12.414062 6.546875 -11.132812 6.546875 -9.71875 Z M 6.546875 -9.71875 "/></g></g></g><g fill="#ffffff" fill-opacity="1"><g transform="translate(342.386707, 46.124995)"><g><path d="M 9.71875 -19.078125 C 12.695312 -19.078125 14.914062 -18.109375 16.375 -16.171875 C 17.84375 -14.242188 18.578125 -11.492188 18.578125 -7.921875 L 6.1875 -7.921875 C 6.238281 -6.671875 6.601562 -5.59375 7.28125 -4.6875 C 7.96875 -3.789062 8.960938 -3.34375 10.265625 -3.34375 C 11.078125 -3.34375 11.738281 -3.550781 12.25 -3.96875 C 12.769531 -4.394531 13.148438 -5.050781 13.390625 -5.9375 L 18.328125 -5.109375 C 17.703125 -3.285156 16.691406 -1.90625 15.296875 -0.96875 C 13.910156 -0.03125 12.207031 0.4375 10.1875 0.4375 C 7.1875 0.4375 4.921875 -0.460938 3.390625 -2.265625 C 2.660156 -3.109375 2.101562 -4.164062 1.71875 -5.4375 C 1.34375 -6.707031 1.15625 -7.96875 1.15625 -9.21875 C 1.15625 -10.914062 1.457031 -12.515625 2.0625 -14.015625 C 2.675781 -15.515625 3.625 -16.734375 4.90625 -17.671875 C 6.195312 -18.609375 7.800781 -19.078125 9.71875 -19.078125 Z M 6.296875 -10.9375 L 13.6875 -10.9375 C 13.65625 -12.457031 13.273438 -13.5625 12.546875 -14.25 C 11.816406 -14.945312 10.957031 -15.296875 9.96875 -15.296875 C 8.820312 -15.296875 7.921875 -14.878906 7.265625 -14.046875 C 6.617188 -13.222656 6.296875 -12.1875 6.296875 -10.9375 Z M 6.296875 -10.9375 "/></g></g></g></svg>