<svg xmlns="http://www.w3.org/2000/svg" xmlns:xlink="http://www.w3.org/1999/xlink" width="500" zoomAndPan="magnify" viewBox="0 0 375 74.999997" height="100" preserveAspectRatio="xMidYMid meet" version="1.0"><defs><g/></defs><path fill="#ffffff" d="M 50.929688 52.855469 L 50.929688 61.40625 C 50.929688 62.195312 51.550781 62.8125 52.335938 62.8125 L 60.886719 62.8125 C 61.253906 62.8125 61.617188 62.671875 61.871094 62.390625 L 92.585938 31.707031 L 82.039062 21.160156 L 51.351562 51.84375 C 51.070312 52.125 50.929688 52.460938 50.929688 52.855469 Z M 100.742188 23.550781 C 101.835938 22.453125 101.835938 20.679688 100.742188 19.585938 L 94.160156 13.003906 C 93.0625 11.90625 91.289062 11.90625 90.195312 13.003906 L 85.046875 18.148438 L 95.59375 28.695312 Z M 100.742188 23.550781 " fill-opacity="1" fill-rule="nonzero"/><g fill="#ffffff" fill-opacity="1"><g transform="translate(118.480954, 47.795283)"><g><path d="M 21.75 -21.421875 L 7.8125 -21.421875 L 7.8125 -15.703125 L 20.765625 -15.703125 L 20.765625 -11.34375 L 7.8125 -11.34375 L 7.8125 -4.359375 L 22.21875 -4.359375 L 22.21875 0 L 2.625 0 L 2.625 -25.78125 L 21.75 -25.78125 Z M 21.75 -21.421875 "/></g></g></g><g fill="#ffffff" fill-opacity="1"><g transform="translate(142.493003, 47.795283)"><g><path d="M 19.6875 -25.78125 L 19.6875 0 L 15.078125 0 L 15.078125 -2.734375 L 15.015625 -2.734375 C 14.222656 -1.535156 13.289062 -0.707031 12.21875 -0.25 C 11.15625 0.207031 10.175781 0.4375 9.28125 0.4375 C 7.914062 0.4375 6.640625 0.0664062 5.453125 -0.671875 C 4.265625 -1.421875 3.300781 -2.539062 2.5625 -4.03125 C 1.832031 -5.519531 1.46875 -7.34375 1.46875 -9.5 C 1.46875 -11.59375 1.820312 -13.359375 2.53125 -14.796875 C 3.238281 -16.234375 4.1875 -17.304688 5.375 -18.015625 C 6.5625 -18.722656 7.878906 -19.078125 9.328125 -19.078125 C 11.429688 -19.078125 13.242188 -18.210938 14.765625 -16.484375 L 14.765625 -25.78125 Z M 6.546875 -9.28125 C 6.546875 -7.21875 6.9375 -5.734375 7.71875 -4.828125 C 8.5 -3.929688 9.414062 -3.484375 10.46875 -3.484375 C 11.125 -3.484375 11.78125 -3.648438 12.4375 -3.984375 C 13.09375 -4.328125 13.660156 -4.96875 14.140625 -5.90625 C 14.578125 -6.738281 14.796875 -8.007812 14.796875 -9.71875 C 14.796875 -11.519531 14.410156 -12.898438 13.640625 -13.859375 C 12.867188 -14.816406 11.863281 -15.296875 10.625 -15.296875 L 10.4375 -15.296875 C 9.050781 -15.222656 8.054688 -14.613281 7.453125 -13.46875 C 6.847656 -12.332031 6.546875 -10.9375 6.546875 -9.28125 Z M 6.546875 -9.28125 "/></g></g></g><g fill="#ffffff" fill-opacity="1"><g transform="translate(164.489049, 47.795283)"><g><path d="M 7.53125 -21.203125 L 2.59375 -21.203125 L 2.59375 -25.78125 L 7.53125 -25.78125 Z M 7.53125 0 L 2.59375 0 L 2.59375 -18.640625 L 7.53125 -18.640625 Z M 7.53125 0 "/></g></g></g><g fill="#ffffff" fill-opacity="1"><g transform="translate(174.497067, 47.795283)"><g><path d="M 7.78125 -18.640625 L 11.125 -18.640625 L 11.125 -14.71875 L 7.78125 -14.71875 L 7.78125 -6.515625 C 7.78125 -5.722656 7.804688 -5.132812 7.859375 -4.75 C 7.921875 -4.363281 8.046875 -4.085938 8.234375 -3.921875 C 8.429688 -3.753906 8.734375 -3.671875 9.140625 -3.671875 C 9.648438 -3.671875 10.3125 -3.828125 11.125 -4.140625 L 11.5625 -0.328125 C 11.050781 -0.0859375 10.4375 0.0976562 9.71875 0.234375 C 9 0.367188 8.316406 0.4375 7.671875 0.4375 C 6.734375 0.4375 5.90625 0.28125 5.1875 -0.03125 C 4.46875 -0.34375 3.9375 -0.765625 3.59375 -1.296875 C 3.238281 -1.898438 3.019531 -2.566406 2.9375 -3.296875 C 2.851562 -4.023438 2.8125 -4.941406 2.8125 -6.046875 L 2.8125 -14.71875 L 0.546875 -14.71875 L 0.546875 -18.640625 L 2.8125 -18.640625 L 2.8125 -22.359375 L 7.78125 -25.265625 Z M 7.78125 -18.640625 "/></g></g></g><g fill="#ffffff" fill-opacity="1"><g transform="translate(186.485095, 47.795283)"><g/></g></g><g fill="#ffffff" fill-opacity="1"><g transform="translate(196.493113, 47.795283)"><g><path d="M 13.71875 -26.203125 C 16.351562 -26.203125 18.582031 -25.5625 20.40625 -24.28125 C 22.226562 -23 23.441406 -21.117188 24.046875 -18.640625 L 18.90625 -17.421875 C 18.59375 -18.765625 17.953125 -19.820312 16.984375 -20.59375 C 16.023438 -21.363281 14.851562 -21.75 13.46875 -21.75 C 11.445312 -21.75 9.875 -21.03125 8.75 -19.59375 C 7.625 -18.164062 7.0625 -15.988281 7.0625 -13.0625 C 7.0625 -10.375 7.519531 -8.195312 8.4375 -6.53125 C 9.363281 -4.863281 11.015625 -4.03125 13.390625 -4.03125 C 14.898438 -4.03125 16.125 -4.507812 17.0625 -5.46875 C 18 -6.425781 18.671875 -7.757812 19.078125 -9.46875 L 24.125 -7.890625 C 23.425781 -5.078125 22.148438 -2.984375 20.296875 -1.609375 C 18.453125 -0.242188 16.160156 0.4375 13.421875 0.4375 C 11.097656 0.4375 9.046875 -0.101562 7.265625 -1.1875 C 5.492188 -2.269531 4.117188 -3.796875 3.140625 -5.765625 C 2.171875 -7.734375 1.6875 -10.035156 1.6875 -12.671875 C 1.6875 -15.023438 2.09375 -17.226562 2.90625 -19.28125 C 3.726562 -21.332031 5.039062 -23 6.84375 -24.28125 C 8.644531 -25.5625 10.9375 -26.203125 13.71875 -26.203125 Z M 13.71875 -26.203125 "/></g></g></g><g fill="#ffffff" fill-opacity="1"><g transform="translate(222.485161, 47.795283)"><g><path d="M 11.046875 -19.078125 C 13.066406 -19.078125 14.804688 -18.617188 16.265625 -17.703125 C 17.734375 -16.796875 18.835938 -15.597656 19.578125 -14.109375 C 20.328125 -12.617188 20.703125 -11.046875 20.703125 -9.390625 C 20.703125 -7.660156 20.3125 -6.046875 19.53125 -4.546875 C 18.75 -3.046875 17.628906 -1.835938 16.171875 -0.921875 C 14.722656 -0.015625 13.03125 0.4375 11.09375 0.4375 C 9.4375 0.4375 7.875 0.09375 6.40625 -0.59375 C 4.945312 -1.28125 3.753906 -2.375 2.828125 -3.875 C 1.898438 -5.375 1.4375 -7.273438 1.4375 -9.578125 C 1.4375 -11.179688 1.800781 -12.707031 2.53125 -14.15625 C 3.269531 -15.613281 4.363281 -16.796875 5.8125 -17.703125 C 7.257812 -18.617188 9.003906 -19.078125 11.046875 -19.078125 Z M 6.515625 -9.328125 C 6.515625 -7.453125 6.953125 -6.023438 7.828125 -5.046875 C 8.703125 -4.078125 9.773438 -3.59375 11.046875 -3.59375 C 12.316406 -3.59375 13.394531 -4.070312 14.28125 -5.03125 C 15.175781 -6 15.625 -7.441406 15.625 -9.359375 C 15.625 -11.140625 15.195312 -12.53125 14.34375 -13.53125 C 13.488281 -14.539062 12.378906 -15.046875 11.015625 -15.046875 C 9.765625 -15.046875 8.703125 -14.550781 7.828125 -13.5625 C 6.953125 -12.582031 6.515625 -11.171875 6.515625 -9.328125 Z M 6.515625 -9.328125 "/></g></g></g><g fill="#ffffff" fill-opacity="1"><g transform="translate(244.481207, 47.795283)"><g><path d="M 7.53125 0 L 2.59375 0 L 2.59375 -25.78125 L 7.53125 -25.78125 Z M 7.53125 0 "/></g></g></g><g fill="#ffffff" fill-opacity="1"><g transform="translate(254.489225, 47.795283)"><g><path d="M 11.046875 -19.078125 C 13.066406 -19.078125 14.804688 -18.617188 16.265625 -17.703125 C 17.734375 -16.796875 18.835938 -15.597656 19.578125 -14.109375 C 20.328125 -12.617188 20.703125 -11.046875 20.703125 -9.390625 C 20.703125 -7.660156 20.3125 -6.046875 19.53125 -4.546875 C 18.75 -3.046875 17.628906 -1.835938 16.171875 -0.921875 C 14.722656 -0.015625 13.03125 0.4375 11.09375 0.4375 C 9.4375 0.4375 7.875 0.09375 6.40625 -0.59375 C 4.945312 -1.28125 3.753906 -2.375 2.828125 -3.875 C 1.898438 -5.375 1.4375 -7.273438 1.4375 -9.578125 C 1.4375 -11.179688 1.800781 -12.707031 2.53125 -14.15625 C 3.269531 -15.613281 4.363281 -16.796875 5.8125 -17.703125 C 7.257812 -18.617188 9.003906 -19.078125 11.046875 -19.078125 Z M 6.515625 -9.328125 C 6.515625 -7.453125 6.953125 -6.023438 7.828125 -5.046875 C 8.703125 -4.078125 9.773438 -3.59375 11.046875 -3.59375 C 12.316406 -3.59375 13.394531 -4.070312 14.28125 -5.03125 C 15.175781 -6 15.625 -7.441406 15.625 -9.359375 C 15.625 -11.140625 15.195312 -12.53125 14.34375 -13.53125 C 13.488281 -14.539062 12.378906 -15.046875 11.015625 -15.046875 C 9.765625 -15.046875 8.703125 -14.550781 7.828125 -13.5625 C 6.953125 -12.582031 6.515625 -11.171875 6.515625 -9.328125 Z M 6.515625 -9.328125 "/></g></g></g><g fill="#ffffff" fill-opacity="1"><g transform="translate(276.485271, 47.795283)"><g><path d="M 7.421875 -9.078125 C 7.421875 -7.753906 7.445312 -6.789062 7.5 -6.1875 C 7.5625 -5.59375 7.691406 -5.113281 7.890625 -4.75 C 8.097656 -4.34375 8.425781 -4.003906 8.875 -3.734375 C 9.320312 -3.472656 9.867188 -3.34375 10.515625 -3.34375 C 11.378906 -3.34375 12.15625 -3.582031 12.84375 -4.0625 C 13.539062 -4.539062 13.988281 -5.128906 14.1875 -5.828125 C 14.40625 -6.523438 14.515625 -8.015625 14.515625 -10.296875 L 14.515625 -18.640625 L 19.4375 -18.640625 L 19.4375 0 L 14.875 0 L 14.875 -2.8125 L 14.796875 -2.8125 C 14.097656 -1.75 13.195312 -0.941406 12.09375 -0.390625 C 10.988281 0.160156 9.847656 0.4375 8.671875 0.4375 C 7.617188 0.4375 6.617188 0.222656 5.671875 -0.203125 C 4.722656 -0.640625 3.992188 -1.269531 3.484375 -2.09375 C 3.128906 -2.664062 2.875 -3.300781 2.71875 -4 C 2.5625 -4.695312 2.484375 -5.570312 2.484375 -6.625 L 2.484375 -18.640625 L 7.421875 -18.640625 Z M 7.421875 -9.078125 "/></g></g></g><g fill="#ffffff" fill-opacity="1"><g transform="translate(298.481317, 47.795283)"><g><path d="M 11.234375 -19.078125 C 11.765625 -19.078125 12.320312 -18.992188 12.90625 -18.828125 C 13.488281 -18.660156 14.007812 -18.445312 14.46875 -18.1875 L 12.921875 -13.859375 C 12.078125 -14.390625 11.3125 -14.65625 10.625 -14.65625 C 9.6875 -14.65625 8.976562 -14.335938 8.5 -13.703125 C 8.019531 -13.066406 7.703125 -12.175781 7.546875 -11.03125 C 7.390625 -9.894531 7.3125 -8.378906 7.3125 -6.484375 L 7.3125 0 L 2.375 0 L 2.375 -18.640625 L 6.953125 -18.640625 L 6.953125 -16.015625 L 7.015625 -16.015625 C 7.617188 -17.023438 8.21875 -17.785156 8.8125 -18.296875 C 9.414062 -18.816406 10.222656 -19.078125 11.234375 -19.078125 Z M 11.234375 -19.078125 "/></g></g></g><g fill="#ffffff" fill-opacity="1"><g transform="translate(312.485349, 47.795283)"><g><path d="M 9.390625 -19.078125 C 11.722656 -19.078125 13.554688 -18.691406 14.890625 -17.921875 C 16.222656 -17.160156 17.140625 -15.898438 17.640625 -14.140625 L 12.953125 -13.28125 C 12.742188 -14.050781 12.351562 -14.617188 11.78125 -14.984375 C 11.21875 -15.359375 10.4375 -15.546875 9.4375 -15.546875 C 7.195312 -15.546875 6.078125 -15.03125 6.078125 -14 C 6.078125 -13.5 6.441406 -13.097656 7.171875 -12.796875 C 7.910156 -12.492188 8.976562 -12.1875 10.375 -11.875 C 12.070312 -11.488281 13.457031 -11.097656 14.53125 -10.703125 C 15.613281 -10.304688 16.503906 -9.71875 17.203125 -8.9375 C 17.898438 -8.164062 18.25 -7.128906 18.25 -5.828125 C 18.25 -4.773438 17.953125 -3.773438 17.359375 -2.828125 C 16.773438 -1.878906 15.847656 -1.097656 14.578125 -0.484375 C 13.304688 0.128906 11.695312 0.4375 9.75 0.4375 C 7.570312 0.4375 5.644531 -0.03125 3.96875 -0.96875 C 2.300781 -1.90625 1.253906 -3.359375 0.828125 -5.328125 L 5.765625 -6.078125 C 6.210938 -4.085938 7.539062 -3.09375 9.75 -3.09375 C 10.613281 -3.09375 11.421875 -3.242188 12.171875 -3.546875 C 12.929688 -3.847656 13.3125 -4.378906 13.3125 -5.140625 C 13.3125 -5.648438 13.140625 -6.003906 12.796875 -6.203125 C 12.453125 -6.410156 11.894531 -6.597656 11.125 -6.765625 C 8.84375 -7.273438 7.066406 -7.742188 5.796875 -8.171875 C 4.523438 -8.597656 3.492188 -9.21875 2.703125 -10.03125 C 1.910156 -10.851562 1.515625 -11.960938 1.515625 -13.359375 C 1.515625 -15.296875 2.253906 -16.734375 3.734375 -17.671875 C 5.222656 -18.609375 7.109375 -19.078125 9.390625 -19.078125 Z M 9.390625 -19.078125 "/></g></g></g></svg>